<?xml version="1.0" standalone="no"?>
<!DOCTYPE svg PUBLIC "-//W3C//DTD SVG 20010904//EN"
 "http://www.w3.org/TR/2001/REC-SVG-20010904/DTD/svg10.dtd">
<svg version="1.0" xmlns="http://www.w3.org/2000/svg"
 width="512.000000pt" height="512.000000pt" viewBox="0 0 512.000000 512.000000"
 preserveAspectRatio="xMidYMid meet">

<g transform="translate(0.000000,512.000000) scale(0.100000,-0.100000)"
fill="#000000" stroke="none">
<path d="M2145 5109 c-382 -21 -1033 -104 -1131 -144 -49 -20 -105 -76 -130
-130 l-24 -50 1 -2050 c0 -1687 2 -2057 13 -2088 34 -94 107 -148 232 -172 86
-16 375 -59 466 -70 l57 -6 3 -147 c3 -136 5 -149 27 -181 45 -62 80 -71 309
-71 221 0 246 5 294 56 40 43 48 75 48 187 l0 102 255 0 255 0 0 -100 c0 -109
16 -160 61 -202 42 -38 73 -43 283 -43 189 0 204 1 246 22 25 13 55 38 67 57
21 31 23 45 23 172 0 76 3 140 8 143 4 2 61 12 127 20 254 35 442 69 485 87
60 27 98 63 126 124 l24 50 0 2049 c0 1541 -3 2058 -12 2088 -13 46 -77 122
-120 144 -91 47 -727 130 -1178 154 -222 11 -593 11 -815 -1z m815 -169 c191
-11 402 -28 438 -36 l23 -5 -3 -727 c-3 -655 -5 -733 -21 -787 -92 -317 -298
-529 -604 -621 -120 -36 -316 -39 -438 -5 -308 83 -530 306 -617 616 -22 79
-22 91 -26 802 l-3 722 23 5 c35 7 266 27 418 35 202 12 612 12 810 1z m-1417
-782 c3 -624 6 -732 20 -788 107 -429 429 -732 847 -795 120 -19 202 -19 315
0 219 35 387 120 551 277 140 134 235 298 287 493 20 78 21 102 24 809 l4 728
57 -7 c31 -3 136 -20 232 -36 157 -26 177 -31 198 -54 l22 -26 0 -2025 c0
-1361 -3 -2032 -10 -2044 -17 -31 -40 -38 -227 -69 -913 -151 -1776 -144
-2719 20 -46 8 -75 19 -91 35 l-23 23 0 2028 c0 2238 -5 2060 63 2082 39 12
371 67 424 70 l22 1 4 -722z m427 -3793 c58 -3 120 -8 138 -11 l32 -5 0 -89 0
-90 -170 0 -170 0 0 106 0 106 33 -5 c17 -3 79 -9 137 -12z m1360 -90 l0 -105
-170 0 -170 0 0 90 0 89 33 5 c17 3 88 9 157 14 69 5 131 10 138 10 9 2 12
-25 12 -103z"/>
<path d="M2454 4260 c-356 -64 -608 -397 -565 -747 25 -209 128 -379 296 -492
276 -185 625 -151 861 84 66 66 89 97 127 175 102 208 102 402 0 610 -83 171
-248 306 -433 355 -70 19 -220 27 -286 15z m196 -171 c268 -43 463 -309 421
-577 -62 -403 -536 -575 -848 -307 -173 148 -217 428 -100 635 67 118 199 215
337 244 81 18 108 19 190 5z"/>
<path d="M2703 3920 c-30 -12 -223 -303 -223 -336 0 -31 50 -84 79 -84 45 0
72 27 165 167 110 165 118 193 65 237 -32 27 -50 31 -86 16z"/>
<path d="M1252 2464 c-17 -7 -35 -21 -41 -33 -14 -26 -14 -133 0 -165 23 -50
98 -58 139 -14 29 31 29 154 0 190 -24 31 -59 39 -98 22z"/>
<path d="M2050 2278 c-73 -50 -75 -56 -78 -291 -2 -132 1 -226 7 -248 16 -52
79 -106 133 -114 24 -3 243 -5 488 -3 438 3 446 3 480 25 20 12 46 40 58 61
21 38 22 51 22 259 0 212 -1 221 -23 254 -12 18 -38 44 -56 56 l-34 23 -482 0
-482 0 -33 -22z m940 -318 l0 -170 -425 0 -425 0 0 170 0 170 425 0 425 0 0
-170z"/>
<path d="M1229 2021 l-29 -29 0 -541 0 -540 24 -27 c33 -39 89 -39 122 0 l24
27 0 540 0 541 -29 29 c-18 17 -40 29 -56 29 -16 0 -38 -12 -56 -29z"/>
<path d="M1825 1425 c-25 -24 -32 -65 -19 -100 13 -33 59 -45 169 -45 104 0
107 1 136 29 17 18 29 40 29 56 0 16 -12 38 -29 56 -29 29 -31 29 -146 29
-110 0 -117 -1 -140 -25z"/>
<path d="M3024 1426 c-39 -33 -39 -89 0 -123 28 -24 34 -24 148 -21 112 3 121
5 139 27 27 33 25 86 -6 116 -23 24 -30 25 -139 25 -106 0 -117 -2 -142 -24z"/>
<path d="M1845 1098 c-52 -28 -62 -92 -20 -133 23 -24 30 -25 140 -25 115 0
117 0 146 29 17 18 29 40 29 56 0 16 -12 38 -29 56 -29 29 -31 29 -138 29 -59
0 -117 -6 -128 -12z"/>
<path d="M3024 1086 c-39 -33 -39 -89 0 -122 25 -22 36 -24 142 -24 109 0 116
1 139 25 17 16 25 35 25 60 0 25 -8 44 -25 60 -23 24 -30 25 -139 25 -106 0
-117 -2 -142 -24z"/>
</g>
</svg>
