<?xml version="1.0" standalone="no"?>
<!DOCTYPE svg PUBLIC "-//W3C//DTD SVG 20010904//EN"
 "http://www.w3.org/TR/2001/REC-SVG-20010904/DTD/svg10.dtd">
<svg version="1.0" xmlns="http://www.w3.org/2000/svg"
 width="200.000000pt" height="200.000000pt" viewBox="0 0 200.000000 200.000000"
 preserveAspectRatio="xMidYMid meet">

<g transform="translate(0.000000,200.000000) scale(0.100000,-0.100000)"
fill="#000000" stroke="none">
<path d="M260 1913 c-39 -14 -40 -27 -40 -368 0 -381 -5 -362 90 -367 l55 -3
3 -50 c2 -27 8 -55 14 -62 15 -19 481 -19 496 0 6 7 12 35 14 62 l3 50 55 3
c85 5 90 13 90 153 l0 119 248 2 247 3 0 25 0 25 -247 3 -248 2 0 175 0 175
248 2 c243 3 247 3 250 24 2 15 -4 23 -20 28 -28 7 -1237 7 -1258 -1z m718
-275 l2 -218 -350 0 -350 0 0 213 c0 118 3 217 7 220 4 4 160 6 347 5 l341 -3
3 -217z m2 -338 l0 -60 -350 0 -350 0 0 60 0 60 350 0 350 0 0 -60z m-150
-155 l0 -35 -200 0 -200 0 0 35 0 35 200 0 200 0 0 -35z"/>
<path d="M1337 1380 c-41 -32 -77 -116 -77 -178 0 -88 18 -131 82 -195 l58
-59 0 -268 c0 -237 -2 -269 -17 -281 -24 -21 -53 -89 -53 -129 0 -51 32 -113
75 -145 38 -30 117 -44 169 -31 36 9 96 65 112 103 26 62 11 158 -29 192 -15
12 -17 45 -17 295 l1 281 37 26 c21 14 50 49 67 80 51 95 38 210 -35 292 -22
26 -40 37 -59 37 -42 0 -51 -17 -51 -97 l0 -73 -85 0 -85 0 0 73 c0 43 -5 78
-12 85 -18 18 -52 15 -81 -8z m374 -143 c36 -131 -88 -263 -227 -242 -55 8
-118 54 -144 104 -27 55 -27 130 2 184 l23 42 5 -61 c8 -92 11 -94 151 -94
138 0 139 0 139 102 l0 63 20 -30 c11 -16 25 -47 31 -68z m-133 -544 l2 -240
-60 1 -60 1 0 240 0 240 57 -1 58 -2 3 -239z m5 -315 c28 -14 57 -69 57 -106
0 -73 -50 -122 -124 -122 -80 0 -138 72 -121 150 8 36 56 87 88 93 27 5 75 -2
100 -15z"/>
<path d="M1455 335 c-19 -18 -25 -35 -25 -65 0 -114 159 -121 177 -8 5 32 1
41 -25 68 -39 39 -91 41 -127 5z m90 -45 c11 -18 -6 -50 -26 -50 -22 0 -34 22
-25 45 6 17 42 20 51 5z"/>
<path d="M440 1016 c-6 -8 -10 -25 -8 -38 4 -33 52 -33 56 0 3 22 -13 52 -28
52 -4 0 -13 -7 -20 -14z"/>
<path d="M780 1016 c-6 -8 -10 -25 -8 -38 4 -33 52 -33 56 0 3 22 -13 52 -28
52 -4 0 -13 -7 -20 -14z"/>
<path d="M610 976 c-6 -8 -10 -25 -8 -38 2 -17 10 -23 28 -23 20 0 26 6 28 29
5 40 -25 59 -48 32z"/>
<path d="M441 756 c-7 -8 -11 -37 -9 -68 3 -49 5 -53 28 -53 23 0 25 4 28 53
3 49 -8 82 -28 82 -4 0 -13 -6 -19 -14z"/>
<path d="M781 756 c-7 -8 -11 -37 -9 -68 3 -49 5 -53 28 -53 23 0 25 4 28 53
3 49 -8 82 -28 82 -4 0 -13 -6 -19 -14z"/>
<path d="M611 716 c-7 -8 -11 -37 -9 -68 3 -49 5 -53 28 -53 24 0 25 4 28 59
2 41 -1 62 -10 67 -18 12 -24 11 -37 -5z"/>
<path d="M440 436 c-6 -8 -10 -25 -8 -38 2 -17 10 -23 28 -23 18 0 26 6 28 23
3 22 -13 52 -28 52 -4 0 -13 -7 -20 -14z"/>
<path d="M780 436 c-6 -8 -10 -25 -8 -38 2 -17 10 -23 28 -23 18 0 26 6 28 23
3 22 -13 52 -28 52 -4 0 -13 -7 -20 -14z"/>
<path d="M434 167 c-3 -9 -4 -28 -2 -44 2 -22 8 -28 28 -28 23 0 25 4 25 40 0
34 -3 40 -23 43 -13 2 -24 -3 -28 -11z"/>
<path d="M774 167 c-3 -9 -4 -28 -2 -44 2 -22 8 -28 28 -28 23 0 25 4 25 40 0
34 -3 40 -23 43 -13 2 -24 -3 -28 -11z"/>
</g>
</svg>
