<?xml version="1.0" standalone="no"?>
<!DOCTYPE svg PUBLIC "-//W3C//DTD SVG 20010904//EN"
 "http://www.w3.org/TR/2001/REC-SVG-20010904/DTD/svg10.dtd">
<svg version="1.0" xmlns="http://www.w3.org/2000/svg"
 width="225.000000pt" height="235.000000pt" viewBox="0 0 225.000000 235.000000"
 preserveAspectRatio="xMidYMid meet">

<g transform="translate(0.000000,235.000000) scale(0.100000,-0.100000)"
fill="#000000" stroke="none">
<path d="M671 1803 c-20 -18 -20 -27 -21 -383 -3 -707 -2 -757 16 -774 14 -14
68 -16 445 -16 416 0 430 1 449 20 20 20 20 33 20 573 0 303 -4 557 -8 563
-21 32 -53 34 -465 34 -380 0 -416 -1 -436 -17z m866 -24 c9 -8 13 -36 13 -85
l0 -74 -439 0 -439 0 -1 69 c-1 50 3 74 14 85 13 13 73 15 427 15 288 1 415
-2 425 -10z m8 -569 l0 -375 -429 -3 c-283 -1 -432 1 -436 8 -5 7 -5 686 -1
743 1 4 196 6 434 5 l432 -3 0 -375z m3 -478 l-3 -67 -430 0 -430 0 -7 59 c-4
33 -4 64 1 70 7 8 140 10 441 8 l431 -2 -3 -68z"/>
<path d="M1076 1744 c-36 -36 0 -113 47 -98 30 9 57 34 57 53 0 51 -69 81
-104 45z m68 -31 c9 -21 -16 -46 -37 -37 -17 6 -23 35 -10 47 12 13 41 7 47
-10z"/>
<path d="M767 1714 c-17 -17 13 -24 109 -24 86 0 104 3 104 15 0 12 -18 15
-103 15 -57 0 -107 -3 -110 -6z"/>
<path d="M1267 1714 c-13 -14 5 -24 44 -24 28 0 39 4 37 13 -5 13 -69 22 -81
11z"/>
<path d="M1380 1705 c0 -11 11 -15 40 -15 29 0 40 4 40 15 0 11 -11 15 -40 15
-29 0 -40 -4 -40 -15z"/>
<path d="M1047 1519 c-144 -35 -247 -163 -247 -309 0 -123 64 -226 175 -281
59 -29 70 -31 147 -27 63 2 95 9 132 28 71 36 132 108 156 187 25 81 25 105 0
186 -47 151 -215 252 -363 216z m190 -55 c202 -97 213 -378 20 -498 -39 -24
-62 -30 -126 -34 -69 -4 -86 -1 -132 21 -104 48 -159 127 -167 240 -6 84 15
143 72 205 92 100 213 124 333 66z"/>
<path d="M1008 1410 c-72 -39 -118 -119 -118 -209 0 -82 58 -167 135 -197 69
-26 163 -16 217 23 140 101 115 321 -44 387 -52 22 -144 20 -190 -4z m184 -20
c14 0 79 -64 92 -89 37 -73 27 -157 -27 -218 -39 -45 -82 -63 -147 -63 -67 0
-123 29 -157 82 -24 35 -28 52 -28 108 0 56 4 73 27 108 43 64 117 95 193 80
22 -4 43 -7 47 -8z"/>
<path d="M1044 1356 c-41 -18 -83 -74 -91 -120 -4 -29 -2 -36 11 -36 9 0 16 8
16 20 0 54 65 120 118 120 13 0 22 6 22 15 0 19 -34 19 -76 1z"/>
<path d="M102 1761 c-73 -58 -74 -70 -12 -160 159 -230 242 -340 257 -345 10
-3 23 -16 28 -28 10 -23 29 -26 70 -13 17 5 30 -8 79 -79 33 -47 63 -86 68
-86 20 0 4 42 -42 108 -53 76 -59 92 -35 112 19 16 19 44 0 60 -8 7 -15 22
-15 33 0 20 -69 127 -218 337 -83 117 -101 123 -180 61z m94 1 c6 -4 71 -92
143 -196 101 -144 132 -195 128 -213 -3 -16 2 -28 15 -37 25 -18 15 -38 -31
-64 -47 -27 -51 -27 -51 -4 0 23 -19 42 -35 36 -17 -7 -296 392 -288 412 6 16
82 73 98 73 6 1 15 -3 21 -7z"/>
<path d="M170 1730 c0 -16 241 -360 252 -360 21 0 -3 43 -113 204 -101 146
-139 189 -139 156z"/>
<path d="M105 1690 c-7 -12 -17 4 111 -182 126 -181 134 -192 147 -179 6 6
-35 74 -113 186 -68 97 -127 178 -131 181 -4 2 -10 0 -14 -6z"/>
<path d="M1850 1779 c-56 -25 -95 -62 -123 -114 -18 -32 -21 -55 -20 -121 l1
-81 -49 -49 c-27 -26 -49 -52 -49 -56 0 -22 33 -2 84 51 51 54 55 62 46 86
-37 96 22 218 127 262 35 14 119 18 127 5 2 -4 -20 -36 -50 -70 -71 -83 -70
-104 5 -156 53 -37 75 -31 131 39 25 30 50 55 56 55 34 0 32 -101 -3 -171 -40
-77 -100 -113 -190 -113 -75 0 -51 21 -227 -201 -88 -111 -113 -152 -85 -143
6 2 66 73 133 158 119 152 122 155 161 156 120 3 189 43 235 138 29 58 32 73
27 122 -5 52 -28 104 -45 104 -4 0 -32 -29 -62 -64 -30 -36 -63 -68 -72 -71
-21 -7 -88 42 -88 65 0 8 27 46 60 83 33 38 60 73 60 78 0 32 -124 38 -190 8z"/>
</g>
</svg>
