<?xml version="1.0" standalone="no"?>
<!DOCTYPE svg PUBLIC "-//W3C//DTD SVG 20010904//EN"
 "http://www.w3.org/TR/2001/REC-SVG-20010904/DTD/svg10.dtd">
<svg version="1.0" xmlns="http://www.w3.org/2000/svg"
 width="247.000000pt" height="266.000000pt" viewBox="0 0 247.000000 266.000000"
 preserveAspectRatio="xMidYMid meet">

<g transform="translate(0.000000,266.000000) scale(0.100000,-0.100000)"
fill="#000000" stroke="none">
<path d="M605 2245 c-5 -2 -22 -6 -36 -9 -17 -4 -32 -18 -43 -40 -14 -30 -16
-111 -16 -756 l0 -722 34 -34 c20 -20 44 -34 58 -34 13 0 31 -9 41 -20 23 -28
97 -28 122 0 14 15 31 20 70 20 48 0 53 2 57 24 3 14 0 30 -5 35 -7 7 -65 11
-147 11 -92 0 -140 4 -148 12 -9 9 -12 128 -12 475 l0 463 410 0 410 0 0 -134
c0 -115 3 -137 18 -157 12 -14 25 -20 35 -16 15 6 17 43 17 397 0 305 -3 398
-13 423 -27 64 -11 62 -446 64 -218 1 -400 0 -406 -2z m783 -77 c9 -8 12 -64
12 -219 l0 -209 -410 0 -410 0 0 209 c0 160 3 211 13 219 17 15 210 20 527 14
151 -2 260 -8 268 -14z"/>
<path d="M700 1970 c0 -112 2 -132 16 -137 30 -11 42 23 43 130 2 119 -2 137
-35 137 l-24 0 0 -130z"/>
<path d="M1045 1577 c-23 -13 -41 -31 -43 -44 -3 -18 7 -23 80 -43 46 -12 87
-26 92 -30 13 -13 -4 -89 -22 -99 -11 -6 -45 -2 -95 10 -87 22 -114 15 -101
-25 21 -65 90 -112 177 -119 53 -4 62 -9 112 -56 31 -30 63 -51 76 -51 24 0
119 95 119 118 0 8 -27 39 -60 70 -56 53 -60 60 -60 102 0 50 -27 116 -56 142
-57 51 -154 62 -219 25z"/>
<path d="M1770 1570 c-18 -17 -50 -54 -70 -84 -19 -30 -100 -128 -179 -218
-192 -218 -179 -204 -192 -191 -17 17 -49 -2 -49 -28 0 -11 -10 -23 -24 -28
-33 -13 -296 -307 -296 -331 0 -16 60 -79 82 -86 25 -8 53 18 199 185 60 68
109 131 109 140 0 23 19 41 43 41 16 0 18 5 13 33 -6 32 1 42 135 193 77 87
179 196 225 242 90 88 110 126 79 149 -26 18 -35 16 -75 -17z"/>
<path d="M713 1573 c-10 -4 -13 -86 -13 -363 0 -306 2 -359 15 -364 8 -3 21 2
30 10 13 13 15 63 15 344 0 360 -4 391 -47 373z"/>
<path d="M1503 1103 c-79 -83 -77 -105 18 -207 62 -67 69 -78 69 -115 0 -108
96 -191 206 -178 129 14 201 154 143 274 -28 57 -87 92 -165 98 -56 4 -58 6
-139 85 -45 44 -86 80 -90 80 -4 0 -23 -16 -42 -37z m321 -243 c35 -13 54 -82
31 -116 -29 -44 -57 -56 -101 -42 -69 23 -86 99 -32 150 32 30 43 31 102 8z"/>
<path d="M1413 883 c-9 -3 -13 -27 -13 -72 0 -39 -5 -72 -12 -79 -7 -7 -36
-12 -64 -12 -42 0 -59 -5 -83 -26 -35 -29 -40 -59 -12 -74 30 -16 86 -12 112
8 13 10 39 24 58 32 48 19 71 62 71 136 0 46 -4 65 -18 77 -20 18 -20 18 -39
10z"/>
</g>
</svg>
