<?xml version="1.0" standalone="no"?>
<!DOCTYPE svg PUBLIC "-//W3C//DTD SVG 20010904//EN"
 "http://www.w3.org/TR/2001/REC-SVG-20010904/DTD/svg10.dtd">
<svg version="1.0" xmlns="http://www.w3.org/2000/svg"
 width="800.000000pt" height="800.000000pt" viewBox="0 0 800.000000 800.000000"
 preserveAspectRatio="xMidYMid meet">

<g transform="translate(0.000000,800.000000) scale(0.100000,-0.100000)"
fill="#000000" stroke="none">
<path d="M3130 6871 c-103 -15 -205 -94 -257 -199 l-28 -57 0 -985 0 -985 26
-56 c38 -80 90 -133 171 -174 l71 -35 206 -1 c113 -1 243 -4 289 -7 l83 -7
152 -258 c83 -141 156 -256 161 -254 7 2 175 281 305 505 6 11 74 15 307 21
l299 6 53 30 c71 38 145 121 174 193 l23 57 0 960 c0 889 -1 964 -18 1010 -34
98 -130 194 -225 227 -28 10 -237 13 -892 14 -470 1 -875 -1 -900 -5z m1782
-189 c20 -13 47 -40 60 -60 l23 -37 0 -955 c0 -944 0 -955 -20 -990 -12 -19
-40 -48 -64 -65 l-43 -30 -323 -5 -324 -5 -103 -175 c-57 -96 -109 -175 -116
-175 -7 0 -59 79 -115 175 l-103 175 -319 5 c-313 5 -321 6 -361 28 -22 13
-53 42 -67 65 l-27 41 0 949 c0 1032 -3 983 55 1037 54 50 38 50 955 47 l855
-2 37 -23z"/>
<path d="M3787 6295 c-142 -62 -239 -152 -301 -280 -45 -92 -59 -160 -58 -270
2 -191 84 -343 250 -462 l62 -45 0 -164 0 -164 80 0 80 0 0 223 -1 222 -66 30
c-210 94 -301 351 -199 558 33 68 85 124 97 105 5 -7 9 -84 9 -171 l0 -157
263 2 262 3 3 168 c2 164 3 167 22 157 31 -17 87 -109 106 -174 24 -87 16
-213 -20 -288 -41 -86 -103 -149 -196 -197 l-80 -42 0 -218 0 -218 48 -6 c26
-3 63 -2 82 2 l35 7 3 164 2 165 43 27 c24 15 72 58 108 95 140 145 190 339
139 537 -27 108 -63 169 -150 257 -59 60 -93 85 -160 117 -47 23 -100 45 -118
48 l-32 6 -2 -218 -3 -219 -91 -3 -91 -3 -6 83 c-4 46 -7 145 -7 221 0 160 6
155 -113 102z"/>
<path d="M2540 3831 c-30 -10 -56 -23 -58 -29 -2 -6 25 -101 59 -212 37 -121
59 -204 53 -210 -9 -9 -204 32 -236 50 -9 5 -35 13 -58 16 -37 6 -40 5 -40
-17 0 -12 9 -41 20 -63 20 -43 190 -581 190 -604 0 -22 27 -24 87 -7 61 18 86
32 78 45 -8 13 -125 394 -125 407 0 17 -3 17 130 -18 191 -51 200 -53 207 -45
4 4 0 28 -10 54 -10 26 -60 182 -111 347 -104 335 -92 316 -186 286z"/>
<path d="M4319 3723 c-146 -155 -186 -235 -198 -401 -5 -53 -20 -142 -34 -197
-56 -213 -81 -438 -75 -680 3 -149 5 -164 30 -217 34 -72 98 -137 173 -174
112 -54 252 -34 353 50 52 44 79 103 157 328 40 117 77 214 83 216 6 2 28 -13
48 -34 50 -49 116 -77 184 -77 85 0 149 34 217 116 l23 27 163 0 163 0 49 -51
c61 -62 122 -92 190 -92 71 0 118 18 181 69 29 24 57 44 62 44 4 0 38 -93 76
-207 95 -290 119 -328 239 -390 75 -39 188 -39 268 -2 79 37 133 90 171 167
l33 67 0 225 c0 259 -17 407 -71 619 -21 82 -34 157 -34 196 0 133 -57 247
-199 398 l-83 87 -204 0 c-185 0 -209 -2 -244 -20 -24 -12 -59 -20 -89 -20
-40 0 -52 4 -61 20 -10 20 -21 20 -449 20 -430 0 -439 0 -444 -20 -4 -17 -14
-20 -56 -20 -32 0 -67 8 -91 20 -35 18 -59 20 -244 20 l-204 0 -83 -87z m488
-100 c18 -12 55 -20 107 -23 l81 -5 3 -150 c1 -82 6 -152 11 -155 5 -3 205 -4
445 -2 l435 2 3 153 3 152 81 5 c52 3 89 11 107 23 22 14 51 17 185 17 l159 0
62 -71 c91 -105 104 -135 112 -259 4 -68 16 -137 33 -195 48 -164 68 -310 73
-552 3 -122 3 -233 -1 -247 -9 -36 -53 -84 -99 -108 -49 -24 -121 -21 -160 8
-41 30 -59 73 -152 354 -48 146 -89 267 -91 269 -2 2 -23 6 -48 8 -41 5 -45 8
-60 48 -48 124 -210 197 -333 150 -63 -24 -126 -84 -152 -145 l-22 -50 -143 0
-144 0 -16 40 c-20 52 -79 116 -130 143 -54 28 -174 30 -227 4 -52 -26 -105
-82 -130 -138 -21 -45 -25 -48 -68 -54 l-47 -6 -83 -252 c-107 -323 -119 -350
-175 -376 -72 -35 -144 -23 -198 35 -43 46 -48 74 -48 257 0 238 38 518 87
650 9 23 19 92 23 152 8 131 20 158 111 262 l64 72 158 0 c134 1 162 -2 184
-16z m911 -75 l-3 -93 -270 0 -270 0 -3 93 -3 92 276 0 276 0 -3 -92z m-626
-669 c11 -6 26 -26 34 -45 12 -29 12 -39 1 -66 -19 -46 -43 -63 -88 -63 -44 0
-84 32 -92 73 -6 33 15 86 40 101 24 14 79 14 105 0z m822 -10 c22 -17 26 -29
26 -68 0 -57 -27 -89 -83 -98 -80 -13 -132 103 -72 162 31 32 91 34 129 4z"/>
<path d="M4550 3382 c0 -42 -13 -52 -68 -52 -22 0 -23 -2 -20 -82 l3 -83 43
-3 c42 -3 42 -3 42 -43 l0 -40 83 3 82 3 3 38 c3 35 5 37 36 37 48 0 57 17 54
97 l-3 68 -40 5 c-38 5 -40 7 -45 45 l-5 40 -82 3 -83 3 0 -39z"/>
<path d="M6177 3413 c-4 -3 -7 -21 -7 -39 0 -34 -4 -37 -65 -46 -17 -3 -20
-12 -23 -72 -3 -79 6 -96 54 -96 31 0 33 -2 36 -37 l3 -38 83 -3 82 -3 0 40
c0 40 0 40 43 43 l42 3 3 83 3 82 -30 0 c-50 0 -61 9 -61 51 l0 39 -78 0 c-43
0 -82 -3 -85 -7z"/>
<path d="M1446 3564 c-25 -31 -46 -60 -46 -65 0 -4 74 -68 164 -141 91 -73
165 -140 165 -148 1 -15 -142 -69 -262 -100 -26 -7 -50 -17 -53 -22 -8 -12 28
-51 64 -69 15 -8 136 -103 269 -211 133 -109 244 -198 246 -198 2 0 26 27 52
61 40 51 45 63 34 74 -8 7 -81 68 -164 135 -82 67 -154 129 -158 136 -6 10 -1
17 15 22 56 21 207 71 247 83 24 7 45 19 48 26 5 12 -45 62 -76 75 -9 3 -123
95 -254 202 -131 108 -240 196 -242 196 -1 0 -23 -25 -49 -56z"/>
<path d="M3609 3423 c-72 -170 -153 -344 -163 -352 -9 -8 -37 25 -106 124 -51
75 -96 137 -100 140 -3 2 -75 -149 -158 -336 l-151 -341 64 -29 c35 -16 68
-30 74 -31 6 -2 52 87 101 197 49 110 94 200 101 200 7 0 53 -59 103 -132 50
-72 95 -131 99 -130 7 2 309 669 304 673 -4 4 -140 64 -144 64 -2 0 -13 -21
-24 -47z"/>
<path d="M1125 2358 c-3 -7 -4 -287 -3 -623 l3 -610 2065 0 2065 0 0 620 0
620 -170 0 -170 0 0 -80 0 -80 88 -3 87 -3 0 -184 0 -185 -402 -2 -403 -3 0
-80 0 -80 400 -5 400 -5 3 -183 2 -182 -1897 2 -1898 3 0 180 0 180 400 5 400
5 3 78 c2 42 2 78 0 79 -2 1 -183 5 -403 8 l-400 5 0 180 0 180 676 3 676 2 6
-122 c4 -66 7 -147 7 -180 l0 -58 530 0 530 0 0 119 c0 65 3 146 6 180 l7 61
37 0 c25 0 40 5 44 16 11 28 6 130 -6 142 -18 18 -2677 17 -2683 0z m2430
-253 l0 -90 -362 -3 -363 -2 0 95 0 95 363 -2 362 -3 0 -90z"/>
<path d="M2570 1565 l0 -85 80 0 80 0 0 85 0 85 -80 0 -80 0 0 -85z"/>
<path d="M2930 1565 l0 -85 80 0 80 0 0 85 0 85 -80 0 -80 0 0 -85z"/>
<path d="M3297 1643 c-4 -3 -7 -42 -7 -85 l0 -78 80 0 80 0 0 85 0 85 -73 0
c-41 0 -77 -3 -80 -7z"/>
<path d="M3657 1643 c-4 -3 -7 -42 -7 -85 l0 -78 80 0 80 0 0 85 0 85 -73 0
c-41 0 -77 -3 -80 -7z"/>
</g>
</svg>
