<?xml version="1.0" standalone="no"?>
<!DOCTYPE svg PUBLIC "-//W3C//DTD SVG 20010904//EN"
 "http://www.w3.org/TR/2001/REC-SVG-20010904/DTD/svg10.dtd">
<svg version="1.0" xmlns="http://www.w3.org/2000/svg"
 width="50.000000pt" height="54.000000pt" viewBox="0 0 50.000000 54.000000"
 preserveAspectRatio="xMidYMid meet">

<g transform="translate(0.000000,54.000000) scale(0.100000,-0.100000)"
fill="#000000" stroke="none">
<path d="M196 449 c-15 -12 -25 -24 -22 -26 3 -3 12 2 21 11 23 22 56 29 88
17 33 -13 35 -31 4 -31 -13 0 -27 -4 -33 -10 -5 -5 -45 -10 -89 -12 -63 -2
-80 -6 -80 -18 0 -12 17 -16 80 -18 44 -2 84 -7 89 -12 6 -6 24 -10 41 -10
l30 -1 -24 -19 c-33 -28 -73 -25 -106 8 -25 25 -27 25 -21 5 6 -19 3 -22 -31
-25 -34 -3 -38 -6 -41 -33 -2 -16 -10 -34 -18 -38 -21 -12 -18 -90 4 -110 21
-19 42 -22 42 -7 0 6 47 10 120 10 73 0 120 -4 120 -10 0 -16 26 -11 43 8 21
23 23 98 3 109 -8 4 -16 22 -18 38 -3 27 -7 30 -47 35 -36 4 -42 7 -30 17 8 6
32 13 54 15 38 3 40 4 40 38 0 34 -2 35 -39 38 -24 2 -52 13 -69 28 -35 30
-76 31 -111 3z m71 -86 c-3 -10 -5 -2 -5 17 0 19 2 27 5 18 2 -10 2 -26 0 -35z
m88 37 l-50 -7 53 -1 c28 -1 52 -6 52 -12 0 -5 -24 -11 -52 -12 l-53 -1 50 -7
50 -7 -60 1 c-50 1 -60 4 -63 20 -5 26 15 36 73 34 l50 -1 -50 -7z m-135 -20
c0 -6 -27 -10 -60 -10 -33 0 -60 4 -60 10 0 6 27 10 60 10 33 0 60 -4 60 -10z
m30 0 c0 -5 -4 -10 -10 -10 -5 0 -10 5 -10 10 0 6 5 10 10 10 6 0 10 -4 10
-10z m136 -91 c2 -5 -4 -14 -16 -21 -11 -7 -20 -23 -20 -35 0 -22 -3 -23 -100
-23 -99 0 -100 0 -100 24 0 13 -7 26 -15 30 -8 3 -15 12 -15 19 0 12 25 15
130 15 72 0 133 -4 136 -9z m-246 -59 c0 -11 -4 -20 -10 -20 -5 0 -10 9 -10
20 0 11 5 20 10 20 6 0 10 -9 10 -20z m243 0 c-3 -11 -9 -20 -14 -20 -5 0 -9
9 -9 20 0 11 6 20 14 20 9 0 12 -7 9 -20z m-273 -45 c0 -33 -4 -45 -15 -45
-11 0 -15 12 -15 45 0 33 4 45 15 45 11 0 15 -12 15 -45z m310 0 c0 -33 -4
-45 -15 -45 -11 0 -15 12 -15 45 0 33 4 45 15 45 11 0 15 -12 15 -45z m-102 8
c-38 -2 -98 -2 -135 0 -38 2 -7 3 67 3 74 0 105 -1 68 -3z m62 -33 c0 -19 -7
-20 -130 -20 -123 0 -130 1 -130 20 0 19 7 20 130 20 123 0 130 -1 130 -20z"/>
<path d="M192 255 c0 -16 2 -22 5 -12 2 9 2 23 0 30 -3 6 -5 -1 -5 -18z"/>
<path d="M298 255 c2 -14 6 -25 8 -25 2 0 4 11 4 25 0 14 -4 25 -9 25 -4 0 -6
-11 -3 -25z"/>
</g>
</svg>
