<?xml version="1.0" standalone="no"?>
<!DOCTYPE svg PUBLIC "-//W3C//DTD SVG 20010904//EN"
 "http://www.w3.org/TR/2001/REC-SVG-20010904/DTD/svg10.dtd">
<svg version="1.0" xmlns="http://www.w3.org/2000/svg"
 width="247.000000pt" height="266.000000pt" viewBox="0 0 247.000000 266.000000"
 preserveAspectRatio="xMidYMid meet">

<g transform="translate(0.000000,266.000000) scale(0.100000,-0.100000)"
fill="#000000" stroke="none">
<path d="M848 2239 c-27 -15 -26 -134 1 -149 21 -11 1127 -15 1155 -4 24 9 23
149 -1 158 -27 11 -1136 6 -1155 -5z m103 -50 c9 -18 8 -25 -8 -41 -22 -22
-49 -16 -58 13 -14 43 44 67 66 28z m107 9 c30 -30 -4 -77 -41 -57 -29 17 -15
69 18 69 6 0 16 -5 23 -12z m122 -3 c6 -8 9 -23 5 -34 -9 -29 -36 -35 -58 -13
-16 16 -17 23 -8 41 13 24 43 28 61 6z m114 -1 c21 -20 20 -27 -3 -48 -32 -29
-72 5 -51 45 13 23 33 24 54 3z m467 6 c24 -13 25 -46 1 -59 -37 -20 -70 27
-40 57 15 15 15 15 39 2z m167 -2 c19 -19 14 -46 -10 -59 -18 -10 -24 -8 -40
11 -17 21 -17 24 -2 41 20 22 35 24 52 7z"/>
<path d="M842 2032 c-9 -7 -12 -61 -10 -238 l3 -229 31 -1 c17 -1 65 -4 106
-8 l74 -6 0 54 c-1 44 4 59 23 80 l24 26 334 0 334 0 24 -25 c25 -24 25 -25
25 -223 0 -226 -4 -258 -34 -275 -13 -8 -87 -14 -201 -17 l-180 -5 5 -40 c6
-59 6 -104 -2 -158 l-8 -47 313 2 312 3 0 555 0 555 -580 2 c-319 2 -586 -1
-593 -5z m1036 -164 l3 -28 -419 0 c-231 0 -434 -3 -451 -6 -30 -6 -31 -6 -31
30 l0 36 448 -2 447 -3 3 -27z"/>
<path d="M788 1474 c-224 -54 -375 -274 -338 -493 69 -413 613 -513 812 -150
13 23 30 53 38 68 11 19 15 58 15 146 0 117 -1 122 -34 190 -62 125 -166 208
-303 240 -76 18 -115 18 -190 -1z m205 -39 c121 -36 205 -109 261 -225 28 -60
31 -73 31 -165 -1 -80 -5 -111 -23 -157 -32 -79 -117 -165 -207 -209 -66 -32
-75 -34 -170 -33 -94 0 -105 2 -176 37 -91 44 -148 101 -192 195 -74 158 -35
350 93 466 103 93 257 129 383 91z"/>
<path d="M975 1354 c-26 -28 -28 -37 -25 -92 1 -24 -7 -42 -29 -68 -34 -38
-36 -46 -21 -75 17 -30 33 -23 60 28 26 48 34 54 85 69 30 10 79 69 69 85 -3
5 -18 -4 -34 -21 -15 -16 -35 -30 -44 -30 -17 0 -56 34 -56 49 0 4 9 20 20 34
38 48 17 66 -25 21z"/>
<path d="M650 1320 c0 -6 23 -32 50 -58 28 -26 90 -89 137 -141 76 -81 85 -95
75 -112 -17 -27 -15 -36 13 -43 13 -3 41 -27 62 -53 75 -92 116 -133 133 -133
20 0 50 30 50 51 0 8 -38 52 -85 99 -47 47 -85 92 -85 102 0 23 -16 31 -39 18
-17 -9 -28 -1 -79 53 -33 34 -82 89 -110 122 -28 33 -60 70 -71 83 -21 23 -51
30 -51 12z"/>
<path d="M789 1000 c-36 -58 -49 -71 -76 -76 -35 -7 -83 -54 -83 -82 0 -12 7
-9 28 11 33 31 62 34 85 9 21 -24 21 -31 -3 -62 -23 -30 -25 -40 -6 -40 28 0
56 50 56 99 0 40 7 56 46 109 45 61 46 63 29 82 -10 11 -21 20 -25 20 -4 0
-27 -31 -51 -70z"/>
</g>
</svg>
