<?xml version="1.0" standalone="no"?>
<!DOCTYPE svg PUBLIC "-//W3C//DTD SVG 20010904//EN"
 "http://www.w3.org/TR/2001/REC-SVG-20010904/DTD/svg10.dtd">
<svg version="1.0" xmlns="http://www.w3.org/2000/svg"
 width="219.000000pt" height="243.000000pt" viewBox="0 0 219.000000 243.000000"
 preserveAspectRatio="xMidYMid meet">

<g transform="translate(0.000000,243.000000) scale(0.100000,-0.100000)"
fill="#000000" stroke="none">
<path d="M913 2215 c-123 -34 -222 -113 -285 -229 -52 -96 -59 -123 -65 -241
-6 -108 -6 -110 -37 -136 l-31 -27 -3 -181 -3 -181 30 -31 c24 -24 38 -30 63
-27 l33 3 -3 235 c-1 129 -3 282 -5 340 -2 89 1 114 21 165 30 79 79 145 144
194 82 62 142 81 252 81 87 0 98 -2 165 -36 94 -47 162 -117 207 -212 34 -71
36 -80 35 -177 -1 -56 -6 -126 -11 -155 -11 -57 -14 -371 -4 -408 4 -12 17
-25 29 -28 31 -8 84 21 95 52 6 14 10 95 10 180 0 163 -6 190 -49 226 -16 14
-21 29 -21 70 0 77 -34 230 -63 290 -90 182 -312 284 -504 233z"/>
<path d="M697 1752 c-15 -17 -17 -63 -17 -516 l0 -497 37 -16 c32 -13 79 -14
314 -10 168 3 284 9 296 16 19 10 21 24 28 265 8 272 -2 735 -16 757 -7 11
-71 15 -317 17 -290 3 -309 2 -325 -16z m417 -115 c47 -37 73 -114 57 -172
-11 -44 -61 -102 -99 -116 -70 -27 -143 2 -188 73 -49 78 -24 177 59 229 45
29 123 22 171 -14z m28 -392 c57 -41 98 -119 98 -190 0 -268 -340 -331 -435
-81 -29 77 -7 181 52 240 47 48 102 67 175 64 55 -3 75 -9 110 -33z"/>
<path d="M969 1605 c-15 -8 -34 -31 -44 -51 -34 -73 17 -154 97 -154 109 0
138 154 38 205 -36 18 -57 18 -91 0z m79 -67 c27 -27 7 -78 -30 -78 -27 0 -52
44 -38 69 12 23 49 28 68 9z"/>
<path d="M967 1215 c-122 -43 -158 -194 -69 -288 71 -75 173 -77 238 -5 55 60
68 132 35 203 -22 49 -48 73 -98 91 -47 16 -59 16 -106 -1z m131 -91 c36 -38
42 -85 17 -134 -17 -32 -61 -60 -95 -60 -29 0 -76 26 -94 52 -23 32 -20 104 5
139 22 31 69 50 109 42 14 -3 40 -20 58 -39z"/>
<path d="M982 1094 c-45 -31 -19 -104 37 -104 55 0 80 61 41 100 -24 24 -48
25 -78 4z"/>
<path d="M400 1465 c-30 -36 -18 -141 18 -153 9 -3 12 18 12 82 0 85 -6 100
-30 71z"/>
<path d="M1607 1453 c-4 -3 -7 -30 -7 -60 0 -60 21 -82 46 -48 34 46 -2 145
-39 108z"/>
<path d="M1472 610 c-12 -5 -40 -24 -62 -41 -37 -30 -45 -32 -162 -40 -68 -5
-199 -10 -293 -11 l-170 -3 -64 40 c-52 32 -74 40 -113 40 -45 0 -53 -4 -90
-43 -36 -39 -39 -45 -25 -59 14 -14 20 -14 61 2 46 18 47 18 71 -5 28 -27 43
-84 26 -103 -6 -8 -29 -20 -52 -27 -70 -24 -62 -60 14 -60 45 0 83 18 155 73
l52 40 268 14 267 13 69 -31 c88 -41 144 -44 180 -10 14 14 26 33 26 44 0 16
-5 18 -27 15 -16 -3 -35 -8 -44 -12 -18 -8 -44 24 -54 67 -6 22 -2 28 34 47
49 24 53 45 10 54 -39 8 -48 7 -77 -4z"/>
</g>
</svg>
